<?xml version="1.0" standalone="no"?>
<!DOCTYPE svg PUBLIC "-//W3C//DTD SVG 20010904//EN"
 "http://www.w3.org/TR/2001/REC-SVG-20010904/DTD/svg10.dtd">
<svg version="1.0" xmlns="http://www.w3.org/2000/svg"
 width="100.000000pt" height="100.000000pt" viewBox="0 0 100.000000 100.000000"
 preserveAspectRatio="xMidYMid meet">
<metadata>
Created by potrace 1.11, written by Peter Selinger 2001-2013
</metadata>
<g transform="translate(0.000000,100.000000) scale(0.100000,-0.100000)"
fill="#000000" stroke="none">
<path d="M370 810 c0 -25 -4 -30 -25 -30 l-25 0 0 -140 0 -140 25 0 c21 0 25
-5 25 -30 l0 -30 89 0 90 0 3 28 c2 19 9 28 24 30 27 4 31 27 28 142 -3 148
-1 140 -29 140 -21 0 -25 5 -25 30 l0 30 -90 0 -90 0 0 -30z m168 -170 l0
-130 -74 0 -74 0 0 130 0 130 74 0 74 0 0 -130z"/>
<path d="M370 255 c0 -32 2 -35 30 -35 23 0 30 -4 30 -20 0 -16 -7 -20 -30
-20 -28 0 -30 -3 -30 -35 0 -33 2 -35 35 -35 32 0 35 2 35 30 0 23 4 30 20 30
16 0 20 -7 20 -30 0 -28 3 -30 35 -30 33 0 35 2 35 35 0 31 -3 35 -25 35 -18
0 -25 5 -25 20 0 15 7 20 25 20 22 0 25 4 25 35 0 33 -2 35 -35 35 -32 0 -35
-2 -35 -31 0 -24 -4 -30 -17 -27 -11 2 -19 14 -21 31 -3 24 -8 27 -38 27 -32
0 -34 -2 -34 -35z"/>
</g>
</svg>
