<?xml version="1.0" standalone="no"?>
<!DOCTYPE svg PUBLIC "-//W3C//DTD SVG 20010904//EN"
 "http://www.w3.org/TR/2001/REC-SVG-20010904/DTD/svg10.dtd">
<svg version="1.0" xmlns="http://www.w3.org/2000/svg"
 width="1000.000000pt" height="1000.000000pt" viewBox="0 0 1000.000000 1000.000000"
 preserveAspectRatio="xMidYMid meet">
<metadata>
Created by potrace 1.11, written by Peter Selinger 2001-2013
</metadata>
<g transform="translate(0.000000,1000.000000) scale(0.100000,-0.100000)"
fill="#000000" stroke="none">
<path d="M4738 9995 c-2 -1 -52 -6 -113 -9 -60 -4 -119 -9 -130 -11 -11 -2
-48 -7 -82 -10 -34 -3 -68 -7 -75 -9 -7 -3 -36 -7 -64 -10 -29 -3 -114 -18
-190 -32 -77 -14 -150 -28 -164 -30 -14 -3 -38 -9 -55 -14 -16 -5 -41 -11 -55
-14 -110 -18 -536 -157 -725 -235 -351 -147 -758 -378 -1068 -608 -286 -214
-588 -495 -802 -747 -27 -32 -54 -64 -60 -70 -23 -26 -126 -157 -181 -231
-248 -336 -458 -712 -608 -1090 -27 -66 -52 -129 -57 -140 -38 -87 -165 -515
-183 -615 -2 -14 -14 -68 -25 -120 -11 -52 -25 -124 -31 -160 -5 -36 -12 -76
-14 -90 -4 -23 -19 -138 -31 -239 -26 -220 -27 -869 -1 -1006 2 -11 7 -51 11
-90 4 -38 9 -77 10 -86 2 -9 6 -40 10 -70 3 -30 13 -85 20 -124 8 -38 17 -86
20 -105 11 -64 55 -251 81 -344 14 -50 27 -101 30 -112 9 -47 109 -328 167
-469 117 -288 308 -646 481 -900 33 -49 64 -94 69 -100 4 -5 31 -42 60 -81
205 -279 415 -506 727 -790 193 -174 518 -406 800 -569 368 -214 911 -434
1270 -515 154 -35 271 -60 300 -65 19 -3 42 -8 50 -10 8 -2 35 -7 60 -10 25
-3 56 -8 70 -10 31 -5 78 -11 150 -20 30 -4 69 -8 85 -10 211 -26 861 -26
1005 -1 14 3 50 7 80 10 70 6 123 14 235 32 819 136 1597 476 2245 981 69 53
139 109 155 124 315 277 491 458 703 723 300 377 566 839 739 1286 54 139 92
245 103 285 5 17 18 62 30 100 20 65 65 234 75 280 3 11 11 49 19 85 31 137
67 348 81 480 3 30 8 69 10 85 27 195 27 792 0 1010 -2 17 -6 57 -10 89 -3 32
-7 62 -9 65 -2 3 -7 35 -10 71 -4 36 -9 72 -11 80 -2 8 -6 32 -10 54 -21 148
-96 450 -161 656 -175 551 -492 1147 -841 1580 -523 650 -1170 1152 -1894
1470 -52 23 -107 48 -124 55 -159 71 -602 212 -755 241 -14 3 -33 7 -42 10
-10 3 -30 7 -44 10 -14 3 -54 11 -88 19 -33 7 -122 23 -196 34 -144 22 -173
25 -290 37 -41 3 -88 9 -105 11 -36 5 -642 13 -647 8z"/>
</g>
</svg>
